<mxfile host="app.diagrams.net" modified="2024-04-06T19:48:50.756Z" agent="Mozilla/5.0 (Windows NT 10.0; Win64; x64) AppleWebKit/537.36 (KHTML, like Gecko) Chrome/123.0.0.0 Safari/537.36" etag="Eps81pFcgQTzUL3twDOK" version="24.2.2" type="google">
  <diagram name="Strona-1" id="Pux_l66xwktT83_eYUGM">
    <mxGraphModel grid="1" page="1" gridSize="10" guides="1" tooltips="1" connect="1" arrows="1" fold="1" pageScale="1" pageWidth="827" pageHeight="1169" math="0" shadow="0">
      <root>
        <mxCell id="0" />
        <mxCell id="1" parent="0" />
        <mxCell id="evnnVwftZKmbFnXmxlsU-1" value="" style="rounded=0;whiteSpace=wrap;html=1;fillColor=#fff2cc;strokeColor=#d6b656;" vertex="1" parent="1">
          <mxGeometry x="80" y="40" width="680" height="930" as="geometry" />
        </mxCell>
        <mxCell id="evnnVwftZKmbFnXmxlsU-2" value="Telemetry Data Flow" style="text;html=1;align=center;verticalAlign=middle;whiteSpace=wrap;rounded=0;fontFamily=Helvetica;" vertex="1" parent="1">
          <mxGeometry x="346" y="40" width="136" height="30" as="geometry" />
        </mxCell>
        <mxCell id="evnnVwftZKmbFnXmxlsU-19" style="edgeStyle=orthogonalEdgeStyle;rounded=0;orthogonalLoop=1;jettySize=auto;html=1;exitX=0.5;exitY=1;exitDx=0;exitDy=0;entryX=0.25;entryY=0;entryDx=0;entryDy=0;fillColor=#dae8fc;strokeColor=#6c8ebf;" edge="1" parent="1" source="evnnVwftZKmbFnXmxlsU-3" target="evnnVwftZKmbFnXmxlsU-16">
          <mxGeometry relative="1" as="geometry" />
        </mxCell>
        <mxCell id="evnnVwftZKmbFnXmxlsU-21" value="OTLP" style="edgeLabel;html=1;align=center;verticalAlign=middle;resizable=0;points=[];" connectable="0" vertex="1" parent="evnnVwftZKmbFnXmxlsU-19">
          <mxGeometry x="-0.0168" relative="1" as="geometry">
            <mxPoint as="offset" />
          </mxGeometry>
        </mxCell>
        <mxCell id="evnnVwftZKmbFnXmxlsU-3" value="Python service&lt;div&gt;(PyBankService)&lt;/div&gt;&lt;div&gt;&lt;b&gt;http://localhost:8080&lt;/b&gt;&lt;br&gt;&lt;/div&gt;" style="rounded=0;whiteSpace=wrap;html=1;fillColor=#dae8fc;strokeColor=#6c8ebf;" vertex="1" parent="1">
          <mxGeometry x="160" y="250" width="200" height="60" as="geometry" />
        </mxCell>
        <mxCell id="evnnVwftZKmbFnXmxlsU-17" style="edgeStyle=orthogonalEdgeStyle;rounded=0;orthogonalLoop=1;jettySize=auto;html=1;exitX=0.5;exitY=1;exitDx=0;exitDy=0;entryX=0.75;entryY=0;entryDx=0;entryDy=0;fillColor=#f8cecc;strokeColor=#b85450;" edge="1" parent="1" source="evnnVwftZKmbFnXmxlsU-4" target="evnnVwftZKmbFnXmxlsU-16">
          <mxGeometry relative="1" as="geometry" />
        </mxCell>
        <mxCell id="evnnVwftZKmbFnXmxlsU-22" value="OTLP" style="edgeLabel;html=1;align=center;verticalAlign=middle;resizable=0;points=[];" connectable="0" vertex="1" parent="evnnVwftZKmbFnXmxlsU-17">
          <mxGeometry x="0.0076" relative="1" as="geometry">
            <mxPoint as="offset" />
          </mxGeometry>
        </mxCell>
        <mxCell id="evnnVwftZKmbFnXmxlsU-4" value="Go service&lt;div&gt;(GoDemoService)&lt;/div&gt;&lt;div&gt;&lt;b&gt;http://localhost:8083&lt;/b&gt;&lt;/div&gt;" style="rounded=0;whiteSpace=wrap;html=1;fillColor=#dae8fc;strokeColor=#6c8ebf;" vertex="1" parent="1">
          <mxGeometry x="480" y="250" width="200" height="60" as="geometry" />
        </mxCell>
        <mxCell id="evnnVwftZKmbFnXmxlsU-7" style="edgeStyle=orthogonalEdgeStyle;rounded=0;orthogonalLoop=1;jettySize=auto;html=1;exitX=0.5;exitY=1;exitDx=0;exitDy=0;" edge="1" parent="1" source="evnnVwftZKmbFnXmxlsU-5" target="evnnVwftZKmbFnXmxlsU-3">
          <mxGeometry relative="1" as="geometry" />
        </mxCell>
        <mxCell id="evnnVwftZKmbFnXmxlsU-13" value="HTTP requests&lt;div&gt;(/transaction, /balance)&lt;br&gt;&lt;/div&gt;" style="edgeLabel;html=1;align=center;verticalAlign=middle;resizable=0;points=[];" connectable="0" vertex="1" parent="evnnVwftZKmbFnXmxlsU-7">
          <mxGeometry x="-0.0383" relative="1" as="geometry">
            <mxPoint as="offset" />
          </mxGeometry>
        </mxCell>
        <mxCell id="evnnVwftZKmbFnXmxlsU-5" value="&lt;div&gt;Locust client for Go service&lt;/div&gt;&lt;div&gt;&lt;b&gt;http://localhost:8089&lt;/b&gt;&lt;br&gt;&lt;/div&gt;" style="rounded=0;whiteSpace=wrap;html=1;fillColor=#f8cecc;strokeColor=#b85450;" vertex="1" parent="1">
          <mxGeometry x="160" y="100" width="200" height="60" as="geometry" />
        </mxCell>
        <mxCell id="evnnVwftZKmbFnXmxlsU-8" style="edgeStyle=orthogonalEdgeStyle;rounded=0;orthogonalLoop=1;jettySize=auto;html=1;exitX=0.5;exitY=1;exitDx=0;exitDy=0;entryX=0.5;entryY=0;entryDx=0;entryDy=0;" edge="1" parent="1" source="evnnVwftZKmbFnXmxlsU-6" target="evnnVwftZKmbFnXmxlsU-4">
          <mxGeometry relative="1" as="geometry" />
        </mxCell>
        <mxCell id="evnnVwftZKmbFnXmxlsU-10" value="&lt;span style=&quot;color: rgba(0, 0, 0, 0); font-family: monospace; font-size: 0px; text-align: start; background-color: rgb(251, 251, 251);&quot;&gt;%3CmxGraphModel%3E%3Croot%3E%3CmxCell%20id%3D%220%22%2F%3E%3CmxCell%20id%3D%221%22%20parent%3D%220%22%2F%3E%3CmxCell%20id%3D%222%22%20value%3D%22HTTP%20requests%22%20style%3D%22edgeLabel%3Bhtml%3D1%3Balign%3Dcenter%3BverticalAlign%3Dmiddle%3Bresizable%3D0%3Bpoints%3D%5B%5D%3B%22%20vertex%3D%221%22%20connectable%3D%220%22%20parent%3D%221%22%3E%3CmxGeometry%20x%3D%22258.9999999999998%22%20y%3D%22180%22%20as%3D%22geometry%22%2F%3E%3C%2FmxCell%3E%3C%2Froot%3E%3C%2FmxGraphModel%3E&lt;/span&gt;" style="edgeLabel;html=1;align=center;verticalAlign=middle;resizable=0;points=[];" connectable="0" vertex="1" parent="evnnVwftZKmbFnXmxlsU-8">
          <mxGeometry x="-0.2122" y="-2" relative="1" as="geometry">
            <mxPoint as="offset" />
          </mxGeometry>
        </mxCell>
        <mxCell id="evnnVwftZKmbFnXmxlsU-15" value="HTTP requests&lt;div&gt;(/hello, /alert)&lt;/div&gt;" style="edgeLabel;html=1;align=center;verticalAlign=middle;resizable=0;points=[];" connectable="0" vertex="1" parent="evnnVwftZKmbFnXmxlsU-8">
          <mxGeometry x="-0.073" relative="1" as="geometry">
            <mxPoint as="offset" />
          </mxGeometry>
        </mxCell>
        <mxCell id="evnnVwftZKmbFnXmxlsU-6" value="Locust client for Python service&lt;div&gt;&lt;b style=&quot;background-color: initial;&quot;&gt;http://localhost:8099&lt;/b&gt;&lt;/div&gt;" style="rounded=0;whiteSpace=wrap;html=1;fillColor=#f8cecc;strokeColor=#b85450;" vertex="1" parent="1">
          <mxGeometry x="480" y="100" width="200" height="60" as="geometry" />
        </mxCell>
        <mxCell id="evnnVwftZKmbFnXmxlsU-16" value="OTel Collector" style="rounded=0;whiteSpace=wrap;html=1;fillColor=#d5e8d4;strokeColor=#82b366;" vertex="1" parent="1">
          <mxGeometry x="300" y="370" width="240" height="120" as="geometry" />
        </mxCell>
        <mxCell id="evnnVwftZKmbFnXmxlsU-23" value="" style="rounded=0;whiteSpace=wrap;html=1;fillColor=#e1d5e7;strokeColor=#9673a6;" vertex="1" parent="1">
          <mxGeometry x="480" y="520" width="200" height="270" as="geometry" />
        </mxCell>
        <mxCell id="evnnVwftZKmbFnXmxlsU-24" value="Jaeger" style="text;html=1;align=center;verticalAlign=middle;whiteSpace=wrap;rounded=0;" vertex="1" parent="1">
          <mxGeometry x="480" y="520" width="60" height="30" as="geometry" />
        </mxCell>
        <mxCell id="evnnVwftZKmbFnXmxlsU-25" value="&lt;font style=&quot;font-size: 11px;&quot;&gt;Jaeger collector&amp;nbsp;&lt;/font&gt;&lt;div style=&quot;font-size: 11px;&quot;&gt;&lt;font style=&quot;font-size: 11px;&quot;&gt;listening on&amp;nbsp;&lt;/font&gt;&lt;/div&gt;&lt;div style=&quot;font-size: 11px;&quot;&gt;&lt;font style=&quot;font-size: 11px;&quot;&gt;http://jaeger:4318/&lt;/font&gt;&lt;/div&gt;" style="shape=parallelogram;perimeter=parallelogramPerimeter;whiteSpace=wrap;html=1;fixedSize=1;fillColor=#fad9d5;strokeColor=#ae4132;" vertex="1" parent="1">
          <mxGeometry x="520" y="554" width="120" height="60" as="geometry" />
        </mxCell>
        <mxCell id="evnnVwftZKmbFnXmxlsU-29" style="edgeStyle=orthogonalEdgeStyle;rounded=0;orthogonalLoop=1;jettySize=auto;html=1;exitX=0.5;exitY=1;exitDx=0;exitDy=0;exitPerimeter=0;entryX=0.5;entryY=0;entryDx=0;entryDy=0;" edge="1" parent="1" source="evnnVwftZKmbFnXmxlsU-26" target="evnnVwftZKmbFnXmxlsU-27">
          <mxGeometry relative="1" as="geometry" />
        </mxCell>
        <mxCell id="evnnVwftZKmbFnXmxlsU-26" value="&lt;font style=&quot;font-size: 11px;&quot;&gt;Jaeger DB&lt;/font&gt;" style="shape=cylinder3;whiteSpace=wrap;html=1;boundedLbl=1;backgroundOutline=1;size=15;fillColor=#fad9d5;strokeColor=#ae4132;" vertex="1" parent="1">
          <mxGeometry x="550" y="630" width="60" height="60" as="geometry" />
        </mxCell>
        <mxCell id="evnnVwftZKmbFnXmxlsU-43" style="edgeStyle=orthogonalEdgeStyle;rounded=0;orthogonalLoop=1;jettySize=auto;html=1;exitX=0.5;exitY=1;exitDx=0;exitDy=0;" edge="1" parent="1" source="evnnVwftZKmbFnXmxlsU-27" target="evnnVwftZKmbFnXmxlsU-41">
          <mxGeometry relative="1" as="geometry" />
        </mxCell>
        <mxCell id="evnnVwftZKmbFnXmxlsU-44" value="http://localhost:16686/search" style="edgeLabel;html=1;align=center;verticalAlign=middle;resizable=0;points=[];" connectable="0" vertex="1" parent="evnnVwftZKmbFnXmxlsU-43">
          <mxGeometry x="0.3087" relative="1" as="geometry">
            <mxPoint as="offset" />
          </mxGeometry>
        </mxCell>
        <mxCell id="evnnVwftZKmbFnXmxlsU-27" value="&lt;font style=&quot;font-size: 11px;&quot;&gt;&lt;span style=&quot;color: rgb(51, 51, 51); font-family: &amp;quot;trebuchet ms&amp;quot;, verdana, arial, sans-serif; text-wrap: nowrap;&quot;&gt;Jaeger HTTP&lt;/span&gt;&lt;br style=&quot;box-sizing: border-box; color: rgb(51, 51, 51); font-family: &amp;quot;trebuchet ms&amp;quot;, verdana, arial, sans-serif; text-wrap: nowrap;&quot;&gt;&lt;span style=&quot;color: rgb(51, 51, 51); font-family: &amp;quot;trebuchet ms&amp;quot;, verdana, arial, sans-serif; text-wrap: nowrap;&quot;&gt;listening on&lt;/span&gt;&lt;br style=&quot;box-sizing: border-box; color: rgb(51, 51, 51); font-family: &amp;quot;trebuchet ms&amp;quot;, verdana, arial, sans-serif; text-wrap: nowrap;&quot;&gt;&lt;span style=&quot;color: rgb(51, 51, 51); font-family: &amp;quot;trebuchet ms&amp;quot;, verdana, arial, sans-serif; text-wrap: nowrap;&quot;&gt;http://localhost:16686&lt;/span&gt;&lt;/font&gt;" style="shape=parallelogram;perimeter=parallelogramPerimeter;whiteSpace=wrap;html=1;fixedSize=1;fillColor=#fad9d5;strokeColor=#ae4132;" vertex="1" parent="1">
          <mxGeometry x="505" y="710" width="150" height="60" as="geometry" />
        </mxCell>
        <mxCell id="evnnVwftZKmbFnXmxlsU-28" style="edgeStyle=orthogonalEdgeStyle;rounded=0;orthogonalLoop=1;jettySize=auto;html=1;exitX=0.5;exitY=1;exitDx=0;exitDy=0;entryX=0.5;entryY=0;entryDx=0;entryDy=0;entryPerimeter=0;" edge="1" parent="1" source="evnnVwftZKmbFnXmxlsU-25" target="evnnVwftZKmbFnXmxlsU-26">
          <mxGeometry relative="1" as="geometry" />
        </mxCell>
        <mxCell id="evnnVwftZKmbFnXmxlsU-32" value="" style="rounded=0;whiteSpace=wrap;html=1;fillColor=#b1ddf0;strokeColor=#10739e;" vertex="1" parent="1">
          <mxGeometry x="160" y="560" width="200" height="200" as="geometry" />
        </mxCell>
        <mxCell id="evnnVwftZKmbFnXmxlsU-33" value="Grafana" style="text;html=1;align=center;verticalAlign=middle;whiteSpace=wrap;rounded=0;" vertex="1" parent="1">
          <mxGeometry x="160" y="560" width="60" height="30" as="geometry" />
        </mxCell>
        <mxCell id="evnnVwftZKmbFnXmxlsU-36" style="edgeStyle=orthogonalEdgeStyle;rounded=0;orthogonalLoop=1;jettySize=auto;html=1;exitX=0.5;exitY=1;exitDx=0;exitDy=0;entryX=0.5;entryY=0;entryDx=0;entryDy=0;" edge="1" parent="1" source="evnnVwftZKmbFnXmxlsU-34" target="evnnVwftZKmbFnXmxlsU-35">
          <mxGeometry relative="1" as="geometry" />
        </mxCell>
        <mxCell id="evnnVwftZKmbFnXmxlsU-34" value="Grafana server" style="rounded=0;whiteSpace=wrap;html=1;fillColor=#ffe6cc;strokeColor=#d79b00;" vertex="1" parent="1">
          <mxGeometry x="200" y="606" width="120" height="36" as="geometry" />
        </mxCell>
        <mxCell id="evnnVwftZKmbFnXmxlsU-42" style="edgeStyle=orthogonalEdgeStyle;rounded=0;orthogonalLoop=1;jettySize=auto;html=1;exitX=0.5;exitY=1;exitDx=0;exitDy=0;" edge="1" parent="1" source="evnnVwftZKmbFnXmxlsU-35" target="evnnVwftZKmbFnXmxlsU-40">
          <mxGeometry relative="1" as="geometry" />
        </mxCell>
        <mxCell id="evnnVwftZKmbFnXmxlsU-45" value="http://localhost:3000/dashboard" style="edgeLabel;html=1;align=center;verticalAlign=middle;resizable=0;points=[];" connectable="0" vertex="1" parent="evnnVwftZKmbFnXmxlsU-42">
          <mxGeometry x="0.2722" relative="1" as="geometry">
            <mxPoint as="offset" />
          </mxGeometry>
        </mxCell>
        <mxCell id="evnnVwftZKmbFnXmxlsU-35" value="&lt;font style=&quot;font-size: 11px;&quot;&gt;Grafana HTTP&amp;nbsp;&lt;/font&gt;&lt;div style=&quot;font-size: 11px;&quot;&gt;&lt;font style=&quot;font-size: 11px;&quot;&gt;listening on&amp;nbsp;&lt;/font&gt;&lt;/div&gt;&lt;div style=&quot;font-size: 11px;&quot;&gt;&lt;font style=&quot;font-size: 11px;&quot;&gt;http://localhost:3000&lt;/font&gt;&lt;/div&gt;" style="shape=parallelogram;perimeter=parallelogramPerimeter;whiteSpace=wrap;html=1;fixedSize=1;fillColor=#fad9d5;strokeColor=#ae4132;" vertex="1" parent="1">
          <mxGeometry x="190" y="670" width="140" height="60" as="geometry" />
        </mxCell>
        <mxCell id="evnnVwftZKmbFnXmxlsU-30" style="edgeStyle=orthogonalEdgeStyle;rounded=0;orthogonalLoop=1;jettySize=auto;html=1;exitX=1;exitY=0.5;exitDx=0;exitDy=0;entryX=0.5;entryY=0;entryDx=0;entryDy=0;fillColor=#f8cecc;strokeColor=#b85450;" edge="1" parent="1" source="evnnVwftZKmbFnXmxlsU-16" target="evnnVwftZKmbFnXmxlsU-25">
          <mxGeometry relative="1" as="geometry" />
        </mxCell>
        <mxCell id="evnnVwftZKmbFnXmxlsU-31" value="HTTP" style="edgeLabel;html=1;align=center;verticalAlign=middle;resizable=0;points=[];" connectable="0" vertex="1" parent="evnnVwftZKmbFnXmxlsU-30">
          <mxGeometry x="0.2734" relative="1" as="geometry">
            <mxPoint as="offset" />
          </mxGeometry>
        </mxCell>
        <mxCell id="evnnVwftZKmbFnXmxlsU-37" style="edgeStyle=orthogonalEdgeStyle;rounded=0;orthogonalLoop=1;jettySize=auto;html=1;exitX=0;exitY=0.5;exitDx=0;exitDy=0;entryX=1;entryY=0.5;entryDx=0;entryDy=0;curved=1;" edge="1" parent="1" source="evnnVwftZKmbFnXmxlsU-27" target="evnnVwftZKmbFnXmxlsU-34">
          <mxGeometry relative="1" as="geometry" />
        </mxCell>
        <mxCell id="evnnVwftZKmbFnXmxlsU-38" value="&lt;font style=&quot;font-size: 10px;&quot;&gt;http://localhost:16686/api&lt;/font&gt;" style="edgeLabel;html=1;align=center;verticalAlign=middle;resizable=0;points=[];" connectable="0" vertex="1" parent="evnnVwftZKmbFnXmxlsU-37">
          <mxGeometry x="0.0359" relative="1" as="geometry">
            <mxPoint x="8" as="offset" />
          </mxGeometry>
        </mxCell>
        <mxCell id="evnnVwftZKmbFnXmxlsU-39" style="edgeStyle=orthogonalEdgeStyle;rounded=0;orthogonalLoop=1;jettySize=auto;html=1;exitX=0;exitY=0.5;exitDx=0;exitDy=0;entryX=0.5;entryY=0;entryDx=0;entryDy=0;fillColor=#dae8fc;strokeColor=#6c8ebf;" edge="1" parent="1" source="evnnVwftZKmbFnXmxlsU-16" target="evnnVwftZKmbFnXmxlsU-34">
          <mxGeometry relative="1" as="geometry" />
        </mxCell>
        <mxCell id="evnnVwftZKmbFnXmxlsU-46" value="HTTP" style="edgeLabel;html=1;align=center;verticalAlign=middle;resizable=0;points=[];" connectable="0" vertex="1" parent="evnnVwftZKmbFnXmxlsU-39">
          <mxGeometry x="-0.0274" relative="1" as="geometry">
            <mxPoint as="offset" />
          </mxGeometry>
        </mxCell>
        <mxCell id="evnnVwftZKmbFnXmxlsU-40" value="Browser Grafana UI" style="shape=hexagon;perimeter=hexagonPerimeter2;whiteSpace=wrap;html=1;fixedSize=1;fillColor=#f5f5f5;fontColor=#333333;strokeColor=#666666;" vertex="1" parent="1">
          <mxGeometry x="195" y="830" width="130" height="70" as="geometry" />
        </mxCell>
        <mxCell id="evnnVwftZKmbFnXmxlsU-41" value="Browser Jaeger UI" style="shape=hexagon;perimeter=hexagonPerimeter2;whiteSpace=wrap;html=1;fixedSize=1;fillColor=#f5f5f5;fontColor=#333333;strokeColor=#666666;" vertex="1" parent="1">
          <mxGeometry x="515" y="830" width="130" height="70" as="geometry" />
        </mxCell>
      </root>
    </mxGraphModel>
  </diagram>
</mxfile>
